<svg xmlns="http://www.w3.org/2000/svg" width="40" height="31" viewBox="0 0 40 31" fill="none">
<mask id="mask0_467_3948" style="mask-type:alpha" maskUnits="userSpaceOnUse" x="0" y="0" width="40" height="31">
<path d="M36.3521 1.34397C38.1523 1.99004 39.0525 2.85147 39.0525 3.92828C39.0525 4.27814 38.8912 4.93783 38.5687 5.90679L30.8308 28.3173C30.7771 28.5059 30.6831 28.7348 30.5486 29.0038C30.4144 29.2731 30.0516 29.6367 29.4607 30.0941C28.8964 30.5248 28.2112 30.7402 27.4051 30.7402C26.6261 30.7402 25.9409 30.5248 25.3498 30.0941C24.7855 29.6367 24.4096 29.1922 24.2212 28.7616L19.506 14.8308C16.5237 23.6602 15.0057 28.1559 14.9519 28.3173C14.8982 28.479 14.7773 28.7077 14.5892 29.0038C14.4011 29.3 14.1862 29.5692 13.9444 29.8115C13.3264 30.4305 12.5876 30.7402 11.7278 30.7402C10.868 30.7402 10.156 30.5383 9.5918 30.1346C9.05446 29.7307 8.69173 29.327 8.50366 28.9231L8.22156 28.3173L0.443317 5.90679C0.147773 5.0185 0 4.35899 0 3.92828C0 2.85147 0.900069 2.0035 2.70023 1.38436C3.47938 1.11515 4.17796 0.980555 4.7959 0.980555C5.44073 0.980555 5.92434 1.19591 6.24677 1.62662C6.59603 2.05734 6.90502 2.71687 7.17372 3.60523L11.6069 17.0919L15.9998 3.80717C16.3759 2.6765 17.061 1.89582 18.0551 1.46512C18.485 1.27667 19.0359 1.18247 19.7076 1.18247C20.4061 1.18247 21.051 1.41127 21.642 1.86891C22.2331 2.29962 22.6093 2.73034 22.7704 3.16107L27.4051 17.1726L31.8385 3.60523C32.0534 2.98613 32.228 2.52845 32.3624 2.23233C32.4966 1.93621 32.7384 1.65355 33.0877 1.38436C33.4639 1.08822 33.9206 0.940186 34.4578 0.940186C34.9953 0.940186 35.6268 1.07478 36.3521 1.34397Z" fill="black"/>
</mask>
<g mask="url(#mask0_467_3948)">
<path d="M30.7276 32.8712C30.0274 34.9868 27.7476 36.1336 25.636 35.4322C23.5241 34.7311 22.38 32.4475 23.0805 30.3319L32.8797 0.733742C33.5799 -1.38187 35.8597 -2.52846 37.9713 -1.82723C40.0832 -1.12599 41.2273 1.15751 40.5268 3.27313L30.7276 32.8712Z" fill="#0F9D58" fill-opacity="0.95"/>
<path d="M24.5974 30.3731C25.1836 32.1518 27.0981 33.1178 28.8735 32.5307C30.6488 31.9438 31.6126 30.026 31.0264 28.2475L22.4493 2.22942C21.8631 0.450776 19.9486 -0.515213 18.1732 0.0718115C16.3979 0.658813 15.434 2.57653 16.0203 4.35515L24.5974 30.3731Z" fill="#F4B400" fill-opacity="0.95"/>
<path d="M14.4115 30.1104C13.8285 31.8711 11.9311 32.8256 10.1734 32.242C8.4157 31.6582 7.46341 29.7575 8.0464 27.9967L17.1003 0.649492C17.6832 -1.11145 19.5807 -2.06579 21.3384 -1.48214C23.0962 -0.898465 24.0484 1.00219 23.4653 2.76311L14.4115 30.1104Z" fill="#DB4437" fill-opacity="0.95"/>
<path d="M8.76827 34.1344C9.46542 36.2403 11.7345 37.3815 13.8365 36.6837C15.9384 35.9856 17.0772 33.7127 16.38 31.6068L6.56914 1.97315C5.87197 -0.132638 3.60286 -1.2739 1.50094 -0.575929C-0.600979 0.122045 -1.73975 2.39495 -1.04259 4.50074L8.76827 34.1344Z" fill="#4285F4" fill-opacity="0.95"/>
</g>
</svg>